<?xml version="1.0" standalone="no"?><!DOCTYPE svg PUBLIC "-//W3C//DTD SVG 20010904//EN" "http://www.w3.org/TR/2001/REC-SVG-20010904/DTD/svg10.dtd"><svg xmlns="http://www.w3.org/2000/svg" version="1.0" width="1209.000000pt" height="1280.000000pt" viewBox="0 0 1209.000000 1280.000000" preserveAspectRatio="xMidYMid meet">
<metadata>
Created by potrace 1.15, written by Peter Selinger 2001-2017
</metadata>
<g transform="translate(0.000000,1280.000000) scale(0.100000,-0.100000)" fill="#88857f" stroke="none">
<path d="M5960 12793 c-19 -1 -84 -8 -143 -13 -137 -14 -498 -73 -600 -99 -139 -36 -190 -65 -233 -133 -13 -21 -34 -44 -47 -53 -13 -8 -102 -35 -198 -59 -198 -49 -277 -84 -355 -158 -166 -157 -234 -548 -143 -825 20 -62 71 -143 89 -143 12 0 25 50 50 190 32 174 26 168 215 219 61 16 195 55 298 85 104 31 204 56 222 56 27 0 40 -8 64 -37 45 -54 57 -97 37 -128 -17 -26 -27 -29 -111 -41 -49 -6 -49 -7 -27 -21 51 -35 11 -63 -89 -63 -33 0 -59 4 -59 10 0 6 8 10 18 10 23 0 64 29 57 41 -9 14 -78 11 -155 -7 -149 -34 -159 -99 -20 -128 l64 -12 -65 -31 c-135 -63 -247 -227 -179 -263 30 -16 81 7 204 89 198 133 333 181 450 160 74 -13 126 -39 160 -79 21 -26 26 -41 26 -88 -1 -74 -29 -142 -121 -288 -66 -106 -73 -122 -75 -173 -2 -47 -12 -75 -63 -173 -72 -138 -77 -163 -30 -138 24 13 25 2 3 -69 -13 -44 -22 -57 -61 -81 -112 -71 -317 -132 -504 -148 -116 -11 -135 -18 -227 -87 -122 -92 -216 -231 -246 -366 -8 -37 -40 -121 -70 -188 -73 -159 -115 -286 -165 -501 -55 -239 -63 -317 -63 -595 1 -243 18 -451 48 -585 19 -87 61 -213 79 -236 13 -18 16 -17 55 21 29 29 43 36 49 27 4 -7 13 -63 19 -125 11 -105 37 -224 112 -507 46 -174 60 -282 70 -542 17 -392 70 -628 144 -628 43 0 51 -23 75 -224 11 -89 59 -198 159 -352 37 -58 79 -145 117 -240 32 -82 78 -187 103 -233 25 -46 64 -143 87 -215 24 -72 61 -172 84 -222 22 -51 41 -105 41 -122 0 -26 -5 -31 -31 -37 -38 -9 -101 0 -198 26 -93 26 -125 19 -274 -59 -222 -116 -349 -255 -363 -395 -5 -51 -5 -52 13 -30 10 11 30 43 44 70 50 92 132 108 173 32 31 -57 18 -78 -71 -128 -154 -86 -185 -107 -238 -157 -87 -83 -296 -182 -640 -303 -275 -97 -715 -347 -897 -510 -67 -60 -167 -187 -241 -306 -166 -269 -399 -482 -917 -840 -225 -156 -282 -201 -475 -375 -292 -263 -411 -389 -552 -585 -233 -325 -443 -640 -443 -667 0 -5 13 -8 29 -8 44 0 106 76 271 334 178 279 266 391 485 615 262 268 446 425 755 646 293 210 441 334 675 569 162 163 255 278 255 316 0 40 225 266 407 407 133 103 575 343 633 343 42 0 238 62 364 115 154 64 245 120 382 235 146 123 240 173 369 196 261 46 705 15 806 -57 16 -11 35 -33 43 -47 22 -43 48 -166 44 -208 -3 -36 -9 -43 -69 -84 -37 -25 -82 -57 -101 -72 -69 -55 -295 -149 -463 -192 -33 -8 -103 -20 -155 -26 -113 -13 -189 -36 -293 -90 -148 -75 -339 -210 -298 -210 7 0 92 38 189 84 185 88 300 129 467 166 318 70 521 146 699 263 74 48 79 50 103 36 43 -24 63 -74 63 -159 0 -100 -15 -147 -59 -191 -76 -76 -222 -106 -566 -118 -200 -8 -248 -12 -291 -28 -92 -36 -360 -230 -655 -474 -338 -281 -452 -362 -696 -492 -212 -113 -296 -172 -533 -378 -74 -64 -162 -133 -195 -154 -72 -46 -354 -326 -482 -480 -51 -60 -119 -155 -152 -210 -34 -55 -86 -131 -116 -170 -105 -135 -275 -428 -275 -475 0 -52 46 -5 132 134 34 56 92 144 129 196 37 52 108 163 159 245 192 314 264 387 800 816 291 233 394 307 570 409 210 122 414 269 760 550 335 271 420 333 505 371 48 21 194 44 350 54 252 16 341 33 495 96 120 48 135 48 156 8 15 -30 15 -33 -3 -58 -25 -34 -221 -132 -343 -171 -118 -37 -200 -54 -408 -85 -449 -67 -471 -79 -756 -418 -241 -287 -551 -544 -896 -742 -210 -120 -268 -162 -334 -245 -33 -41 -130 -154 -216 -250 -271 -304 -382 -442 -515 -635 -38 -55 -100 -140 -138 -190 -68 -88 -69 -90 -44 -93 14 -2 38 4 52 14 14 9 94 107 177 218 303 401 528 667 729 859 149 144 209 189 381 289 266 154 366 236 798 657 168 163 325 313 350 333 104 84 250 129 495 153 267 25 532 110 669 214 96 72 124 77 91 15 -26 -48 -109 -123 -144 -130 -17 -4 -38 -15 -47 -25 -16 -18 -15 -19 12 -30 38 -14 141 -6 181 15 18 9 117 102 222 206 104 105 193 190 198 190 8 0 21 -69 128 -665 57 -316 158 -823 195 -981 84 -357 216 -639 367 -786 91 -89 126 -108 193 -108 53 0 64 -4 134 -51 72 -49 80 -52 181 -65 61 -8 131 -25 167 -39 98 -40 289 -93 437 -122 107 -20 169 -26 292 -27 l156 -1 59 40 c32 22 145 123 249 225 105 102 211 201 236 221 27 22 58 62 79 100 30 56 35 76 38 153 5 99 -12 374 -33 541 -16 123 -16 125 48 125 95 0 156 73 142 168 -18 119 -108 326 -203 465 -79 116 -90 138 -105 221 -26 140 -92 885 -80 897 8 8 47 -1 139 -30 71 -22 192 -56 269 -76 76 -21 163 -47 191 -60 113 -50 229 -143 474 -378 272 -262 408 -364 655 -493 157 -82 208 -94 416 -94 200 0 252 9 344 57 147 78 148 78 210 77 74 0 104 -15 248 -123 105 -78 145 -100 166 -87 30 19 82 289 84 446 l2 105 -37 53 c-21 30 -42 71 -48 91 -15 56 -36 69 -146 89 -54 10 -113 26 -130 35 -65 34 -216 238 -265 359 -40 96 -46 106 -82 125 -28 16 -64 18 -322 18 l-290 0 -90 40 c-190 86 -350 194 -645 435 -332 271 -509 380 -688 421 -154 36 -173 50 -145 107 23 48 115 117 483 367 483 328 543 379 707 608 48 67 107 146 131 176 62 78 81 121 92 210 6 43 27 126 47 182 30 85 36 119 37 186 1 70 -2 85 -22 110 -55 69 -57 75 -56 153 0 41 11 123 23 182 12 61 21 132 19 165 -3 51 -6 59 -28 67 -20 6 -41 2 -88 -17 -130 -52 -194 -99 -866 -634 -92 -74 -170 -132 -173 -129 -13 13 -43 166 -43 219 0 32 11 118 25 191 48 260 56 387 65 991 5 314 13 586 18 605 5 19 17 52 26 72 26 60 30 136 12 222 -29 139 -84 259 -219 471 -94 148 -124 214 -141 315 -27 153 -114 294 -345 560 -134 153 -267 283 -316 306 -38 18 -289 246 -383 349 -34 38 -61 75 -60 83 2 9 21 20 42 26 79 22 74 50 -45 217 -98 138 -118 181 -131 270 -5 40 -27 122 -49 182 -21 61 -39 114 -39 119 0 5 11 6 25 2 21 -5 25 -3 25 17 -1 42 -55 161 -121 269 -36 58 -77 131 -91 162 -15 31 -45 84 -67 117 -56 82 -66 109 -47 130 31 34 -24 101 -170 211 -92 69 -134 112 -134 135 0 47 -370 270 -495 298 -55 12 -61 16 -71 48 -8 27 -22 39 -65 61 -72 35 -262 84 -382 97 -89 10 -284 12 -367 4z m530 -96 c70 -14 106 -31 196 -91 33 -22 142 -83 244 -136 229 -119 248 -131 270 -167 10 -16 72 -73 138 -126 162 -130 188 -158 195 -209 4 -29 24 -69 65 -127 32 -47 89 -144 127 -216 38 -71 84 -155 102 -185 33 -54 42 -103 23 -115 -16 -10 -12 -51 11 -113 11 -31 32 -88 46 -127 20 -54 25 -88 25 -149 -1 -100 9 -123 107 -255 44 -58 82 -118 86 -132 6 -25 4 -27 -33 -34 -64 -10 -63 -27 7 -178 61 -129 91 -207 80 -207 -5 0 -43 31 -85 69 -105 96 -126 105 -259 109 -136 4 -143 0 -216 -134 l-52 -96 -114 113 -114 114 -76 -40 c-42 -22 -106 -68 -143 -102 -38 -35 -74 -63 -82 -63 -7 0 -25 8 -38 18 -19 13 -47 17 -115 18 -126 2 -121 1 -157 33 -37 33 -46 31 -105 -20 -17 -15 -46 -30 -64 -34 -23 -5 -65 -39 -140 -112 l-106 -104 -72 85 c-75 88 -113 113 -158 101 -37 -9 -87 -64 -101 -113 -17 -54 -37 -75 -62 -62 -11 6 -62 61 -114 124 -160 192 -350 335 -478 361 -27 5 -28 8 -28 65 0 86 17 154 62 249 22 46 43 107 48 135 4 28 33 108 64 178 53 119 80 212 72 240 -3 7 -7 25 -10 41 -10 41 -69 101 -153 154 l-74 46 116 48 c64 27 140 55 170 64 30 8 81 22 113 31 64 18 216 86 225 101 19 30 -121 128 -390 273 -173 94 -248 144 -238 161 9 14 116 11 173 -6 34 -10 62 -27 84 -52 102 -114 144 -137 243 -137 85 0 131 21 193 88 49 53 62 82 62 137 0 49 18 58 68 34 70 -34 292 -30 292 5 0 16 -17 20 -112 29 -57 6 -112 18 -143 32 -46 20 -59 21 -185 16 -74 -3 -205 -18 -290 -32 -85 -14 -185 -30 -221 -34 -121 -16 -211 14 -307 103 -100 92 -125 156 -76 195 79 63 376 123 734 151 161 12 589 4 670 -13z m-1437 -318 c56 -19 109 -70 147 -141 38 -70 117 -154 185 -193 24 -15 78 -39 118 -55 107 -41 337 -191 337 -219 0 -10 22 -2 -265 -106 -437 -158 -475 -176 -706 -326 -125 -82 -169 -103 -169 -80 0 57 295 230 708 415 128 57 244 112 259 121 25 17 25 18 8 31 -41 30 -235 70 -390 81 -107 7 -268 -14 -399 -53 -49 -14 -167 -43 -264 -65 -97 -21 -186 -46 -199 -54 -33 -22 -48 -58 -73 -175 -34 -163 -58 -166 -86 -11 -47 264 17 558 146 674 84 75 233 142 380 171 44 8 224 -2 263 -15z m933 -124 c20 -31 13 -93 -17 -141 -41 -66 -170 -101 -254 -69 -38 14 -50 25 -70 66 -30 59 -31 85 -5 99 30 16 56 4 92 -41 26 -33 37 -39 68 -39 49 0 86 30 102 81 10 36 39 69 60 69 4 0 15 -11 24 -25z m-492 -425 c85 -36 85 -41 -2 -59 -59 -12 -121 -41 -141 -65 -8 -9 -22 -16 -31 -16 -37 0 -89 124 -69 163 17 31 141 19 243 -23z m-29 -1569 c69 -34 148 -112 160 -158 8 -35 -20 -74 -66 -90 -81 -28 -174 -11 -343 66 -38 17 -70 30 -72 28 -2 -2 10 -29 27 -61 35 -67 35 -101 -3 -129 -44 -33 -72 -18 -190 105 -60 61 -108 114 -108 118 0 10 219 116 275 133 75 24 93 26 179 22 63 -3 90 -9 141 -34z m2441 -21 c65 -33 112 -68 233 -177 45 -40 85 -73 91 -73 5 0 14 9 20 20 13 24 5 86 -21 173 -10 34 -16 63 -13 66 3 4 63 -53 133 -124 106 -109 134 -144 167 -210 37 -76 39 -83 39 -178 0 -91 -2 -100 -23 -117 -34 -28 -118 -35 -170 -15 -83 34 -178 165 -216 300 -38 131 -67 138 -64 16 3 -85 2 -91 -27 -132 -106 -150 -158 -83 -220 287 -14 80 -25 156 -25 170 0 33 23 31 96 -6z m-157 -39 c6 -10 25 -99 42 -198 32 -179 42 -217 99 -373 42 -113 84 -268 115 -419 25 -123 33 -148 42 -123 3 7 17 27 31 44 26 30 26 30 99 24 124 -11 123 -9 55 -106 -32 -47 -73 -93 -91 -104 -47 -27 -162 -27 -199 1 -99 73 -182 473 -142 683 11 58 7 71 -15 49 -19 -19 -33 -122 -40 -304 -11 -283 -46 -445 -108 -508 -43 -42 -145 -77 -246 -84 -45 -3 -81 -9 -81 -14 0 -17 54 -48 101 -58 68 -15 112 -2 188 54 34 25 63 45 66 45 10 0 5 -289 -6 -367 -6 -43 -32 -145 -59 -228 -26 -82 -60 -205 -76 -272 -15 -68 -29 -121 -32 -119 -2 3 -14 34 -27 70 -49 141 -203 386 -336 536 -97 110 -155 185 -225 290 -31 47 -131 158 -271 301 -159 162 -229 241 -248 280 -36 71 -86 136 -225 299 -179 209 -183 218 -132 289 15 21 36 56 46 79 32 72 57 67 122 -24 97 -136 150 -138 235 -12 42 62 70 81 134 93 28 5 50 18 77 47 l37 40 32 -26 c31 -26 34 -27 128 -21 75 5 106 3 140 -9 63 -23 74 -21 126 24 37 32 54 40 86 40 29 0 41 5 45 18 25 81 84 68 258 -57 55 -39 108 -71 117 -71 13 0 19 12 24 43 9 54 37 119 64 146 26 26 37 26 50 2z m-2981 -80 c57 -29 216 -199 251 -269 17 -33 62 -172 101 -309 67 -236 102 -333 120 -333 4 0 13 7 20 15 17 21 30 19 30 -5 0 -25 40 -125 130 -325 150 -335 179 -421 160 -479 -36 -110 -141 -79 -257 76 l-61 82 38 76 c54 104 70 154 70 216 0 66 -14 70 -29 8 -28 -110 -99 -204 -156 -204 -66 0 -184 106 -281 251 -41 63 -128 253 -175 382 -7 20 -16 37 -20 37 -3 0 -9 -35 -11 -77 -8 -116 -78 -284 -130 -317 -23 -14 -43 -2 -84 51 -40 53 -73 157 -94 301 l-17 117 -7 -60 c-12 -96 -35 -160 -71 -195 -91 -88 -170 3 -168 195 0 80 16 178 32 204 5 8 28 15 53 16 28 1 57 10 76 23 33 24 126 142 118 150 -3 3 -22 -8 -42 -24 -86 -69 -121 -77 -145 -33 -35 67 134 324 259 392 102 55 224 72 290 38z m1030 -179 c92 -113 115 -168 120 -276 4 -82 2 -93 -16 -109 -33 -30 -92 -33 -143 -7 -52 26 -268 244 -307 309 -25 42 -25 44 -7 57 46 34 115 2 228 -105 120 -113 132 -108 47 19 -75 112 -89 162 -55 200 17 19 19 19 46 3 15 -10 54 -51 87 -91z m-486 1 c37 -40 120 -168 157 -241 37 -73 41 -144 8 -150 -26 -5 -43 12 -114 120 -62 94 -92 123 -78 76 4 -13 34 -68 66 -124 32 -55 59 -106 59 -112 0 -40 -128 16 -188 82 -44 47 -112 175 -112 209 0 11 13 24 38 33 48 20 79 49 103 97 11 20 23 37 27 37 5 0 20 -12 34 -27z m3429 -150 c104 -111 304 -354 341 -415 48 -78 78 -159 85 -225 5 -48 3 -54 -24 -82 -53 -52 -172 -49 -201 6 -16 30 -40 161 -47 258 l-6 90 19 -30 c10 -16 38 -65 62 -107 42 -76 90 -134 90 -110 0 46 -109 236 -277 485 -62 92 -113 172 -113 177 0 21 19 8 71 -47z m-596 -134 c17 -120 52 -284 66 -309 5 -9 8 35 7 105 -3 169 11 199 56 127 22 -35 41 -47 134 -83 28 -11 27 -14 -2 -93 -52 -136 -126 -216 -201 -216 -67 0 -183 180 -206 317 -17 103 -9 130 62 207 34 37 63 65 65 63 2 -2 11 -55 19 -118z m535 4 c54 -66 138 -249 156 -342 28 -144 9 -268 -54 -342 -110 -128 -258 -83 -361 110 -20 39 -31 73 -31 100 0 37 37 152 88 272 l17 40 34 -93 c53 -150 133 -352 142 -362 32 -35 -20 178 -81 332 -46 120 -50 159 -16 199 29 35 56 87 56 108 0 25 17 17 50 -22z m-2543 -122 c171 -193 227 -335 173 -440 -15 -30 -30 -43 -64 -56 -41 -16 -48 -16 -98 -1 -103 31 -190 110 -360 330 l-62 79 100 -5 c141 -8 157 -17 250 -139 125 -163 142 -142 28 35 -35 54 -69 117 -75 139 -11 43 -3 157 12 157 4 0 48 -45 96 -99z m-498 -73 c112 -140 155 -282 116 -383 -19 -51 -78 -115 -106 -115 -43 0 -168 117 -282 265 -54 71 -159 236 -153 242 2 3 56 -12 119 -31 112 -35 117 -38 150 -84 19 -26 51 -77 71 -114 21 -37 46 -78 57 -90 l20 -23 -6 25 c-4 14 -33 81 -66 150 -32 69 -59 133 -59 142 0 24 49 78 71 78 11 0 39 -26 68 -62z m-1549 -253 c15 -128 9 -276 -14 -334 -29 -75 -38 -251 -27 -505 19 -405 14 -576 -19 -576 -39 0 -79 166 -88 368 -9 200 2 574 22 717 19 144 96 463 106 444 5 -8 14 -59 20 -114z m1844 -130 c114 -89 196 -145 213 -145 25 0 36 -74 36 -244 -1 -176 -11 -249 -39 -260 -58 -22 -284 222 -361 390 -23 51 -24 60 -13 98 15 51 46 86 76 86 19 0 24 -7 30 -37 11 -69 131 -325 166 -358 36 -34 -81 290 -167 462 -24 45 -41 83 -39 83 1 0 46 -34 98 -75z m-1552 -15 c26 -48 21 -166 -10 -227 -25 -48 -93 -123 -111 -123 -7 0 -25 12 -40 28 -78 77 -101 312 -31 312 29 0 50 -39 51 -95 0 -56 8 -46 30 39 14 54 54 109 77 104 8 -2 23 -19 34 -38z m406 -77 c24 -52 72 -180 107 -283 65 -194 95 -264 103 -242 5 17 -26 156 -49 215 -24 60 -24 67 1 67 12 0 24 -9 29 -23 10 -24 39 -51 110 -100 51 -35 73 -76 73 -134 0 -54 -17 -99 -50 -135 -46 -50 -136 -33 -207 37 -50 51 -71 103 -84 209 -6 52 -18 100 -28 115 l-17 26 -7 -30 c-4 -16 -7 -55 -8 -85 -1 -30 -6 -72 -11 -92 -12 -41 -66 -94 -107 -104 -23 -6 -33 0 -77 47 -87 95 -144 254 -122 342 7 29 49 47 107 47 53 0 86 32 139 134 25 47 47 86 50 86 3 0 24 -44 48 -97z m3017 19 c69 -110 88 -145 101 -195 18 -68 18 -168 -1 -237 -8 -30 -15 -56 -15 -57 0 -2 7 -3 16 -3 20 0 44 59 44 110 0 114 47 181 136 194 65 9 75 -3 75 -91 1 -131 -79 -308 -198 -442 -69 -78 -105 -98 -136 -78 -41 27 -85 117 -98 197 -17 110 -7 484 15 578 10 39 21 72 24 72 4 0 20 -22 37 -48z m562 15 c81 -92 145 -235 173 -384 l18 -98 2 80 c2 103 13 192 26 205 17 17 107 -13 122 -41 20 -37 9 -227 -18 -314 -58 -184 -143 -285 -228 -271 -87 14 -139 114 -197 376 -47 210 -42 336 18 443 26 46 46 47 84 4z m-1918 -9 c45 -48 124 -361 125 -495 1 -76 -1 -83 -30 -120 -54 -67 -132 -54 -225 37 -32 31 -51 59 -59 89 -12 46 -11 334 2 347 17 16 40 -26 102 -185 36 -92 73 -176 81 -187 14 -18 14 -18 15 11 0 27 -22 96 -108 333 -35 96 -31 124 20 167 36 31 51 31 77 3z m157 -30 c149 -125 323 -375 349 -504 10 -49 -27 -85 -91 -91 -41 -3 -59 2 -109 29 -82 45 -98 73 -113 197 -7 57 -11 105 -8 108 2 2 44 -37 93 -87 91 -95 140 -136 150 -127 10 10 -39 79 -144 203 -133 159 -193 247 -193 285 0 16 3 29 8 29 4 0 30 -19 58 -42z m-1115 10 c39 -29 62 -68 89 -148 42 -126 252 -508 321 -584 25 -27 28 -29 29 -11 0 11 -15 43 -34 71 -75 111 -241 443 -252 504 l-7 35 33 -30 c17 -16 69 -79 115 -140 45 -60 128 -158 183 -217 62 -67 105 -122 112 -144 17 -49 6 -196 -18 -244 -57 -117 -173 21 -423 505 -141 274 -206 425 -185 425 4 0 20 -10 37 -22z m3412 -55 c8 -16 27 -66 42 -113 15 -47 39 -107 52 -134 14 -27 29 -79 34 -115 9 -64 32 -106 51 -95 15 10 2 63 -68 275 -35 107 -64 198 -64 202 0 14 180 7 209 -8 51 -26 84 -170 84 -365 1 -151 -16 -228 -58 -279 -70 -82 -205 -62 -318 47 -77 75 -81 86 -74 237 12 276 64 439 110 348z m517 -308 c92 -186 120 -264 127 -356 12 -153 -25 -218 -105 -190 -76 27 -212 141 -212 178 0 5 9 18 20 28 22 20 47 89 56 158 4 26 10 49 13 52 4 2 23 -32 42 -75 18 -44 42 -90 51 -102 l18 -23 0 22 c0 22 -9 46 -85 242 -40 102 -69 230 -58 257 11 29 57 -37 133 -191z m-5288 113 c56 -39 71 -94 77 -268 4 -150 18 -177 20 -40 2 82 22 180 45 214 20 32 73 66 91 59 27 -10 85 -173 85 -238 0 -82 -134 -305 -184 -305 -47 0 -100 85 -141 225 -38 131 -57 375 -29 375 3 0 20 -10 36 -22z m4078 -264 c15 -40 48 -198 60 -293 12 -92 8 -150 -20 -306 -30 -162 -33 -185 -22 -185 15 0 45 86 82 235 18 72 39 141 47 154 14 22 20 23 84 19 39 -3 73 -8 76 -12 10 -10 -44 -200 -87 -310 -73 -181 -156 -296 -216 -296 -32 0 -70 40 -103 110 -23 50 -26 69 -30 195 -5 217 21 507 56 620 13 42 47 95 60 95 2 0 8 -12 13 -26z m-3360 -101 c37 -41 76 -100 100 -148 21 -44 48 -91 60 -105 l21 -25 -7 66 c-6 62 -4 68 17 83 13 9 42 16 65 16 39 0 43 -3 53 -33 14 -40 1 -119 -28 -176 -19 -37 -95 -111 -113 -111 -71 0 -268 336 -268 455 0 66 24 61 100 -22z m2252 -15 c75 -79 169 -219 197 -292 48 -129 21 -183 -88 -173 -71 6 -165 50 -196 92 -28 37 -64 150 -72 226 -8 82 8 85 70 13 86 -99 205 -219 212 -212 11 11 -20 58 -115 178 -101 126 -120 157 -120 193 0 58 40 49 112 -25z m-2561 -202 c36 -233 55 -306 81 -306 13 0 7 81 -17 230 -8 52 -18 137 -22 187 -7 106 2 119 61 90 25 -12 38 -29 56 -74 13 -32 48 -103 79 -157 87 -157 82 -227 -22 -354 -24 -29 -54 -60 -66 -68 -21 -15 -24 -14 -66 29 -83 87 -123 152 -175 280 -40 98 -51 136 -47 162 6 35 89 236 96 230 2 -3 21 -115 42 -249z m1767 181 c74 -44 159 -122 181 -166 30 -58 80 -230 87 -295 5 -53 3 -65 -18 -96 -37 -55 -80 -54 -175 6 -110 68 -185 135 -213 187 -22 42 -23 50 -12 89 19 66 34 168 29 194 -2 13 -1 24 2 24 10 -1 97 -122 121 -170 33 -65 120 -170 142 -170 19 0 6 52 -21 82 -50 58 -211 326 -211 352 0 11 27 0 88 -37z m458 9 c41 -19 80 -46 92 -63 33 -47 69 -195 92 -381 22 -171 -24 -216 -155 -153 -89 42 -123 84 -152 183 -28 98 -76 328 -69 335 2 3 43 -54 91 -126 47 -73 90 -129 96 -125 6 3 -5 31 -26 67 -69 121 -99 190 -103 244 l-4 53 34 0 c18 0 65 -15 104 -34z m-1533 -5 c13 -16 35 -50 47 -75 20 -42 42 -58 54 -38 2 4 -4 27 -15 51 -20 46 -25 91 -10 91 43 0 229 -248 217 -288 -7 -22 -83 -72 -111 -72 -27 0 -61 36 -120 128 -93 146 -139 294 -62 203z m3543 14 c4 -8 -4 -41 -17 -72 l-23 -57 -8 32 c-16 63 28 151 48 97z m-3076 -141 c28 -51 45 -73 50 -64 16 27 98 -58 135 -140 17 -38 18 -45 4 -69 -22 -40 -72 -40 -132 0 -79 52 -207 229 -207 286 0 12 16 35 35 52 47 41 61 33 115 -65z m3221 14 c103 -71 104 -74 103 -256 -1 -109 -6 -178 -17 -225 -21 -86 -22 -104 -3 -88 17 14 53 144 62 224 4 32 10 54 14 50 10 -10 140 -323 140 -336 0 -14 -112 -147 -163 -194 -107 -99 -157 -38 -222 272 -35 164 -48 289 -44 422 3 93 8 125 22 146 9 15 24 27 32 27 7 0 42 -19 76 -42z m-1235 14 c49 -32 68 -172 62 -437 -3 -113 -2 -189 3 -175 4 14 22 110 39 214 33 198 46 245 83 285 23 25 167 125 171 119 5 -6 -34 -295 -60 -433 -30 -166 -87 -409 -108 -458 -21 -51 -44 -60 -84 -35 -40 25 -147 165 -181 238 -25 52 -26 63 -26 220 0 176 19 316 57 418 20 53 24 57 44 44z m-3480 -167 c18 -39 26 -80 33 -180 18 -234 67 -470 115 -561 21 -39 26 -43 21 -19 -66 310 -86 448 -86 603 0 59 4 119 10 134 25 66 58 42 106 -74 41 -100 84 -178 120 -218 64 -70 68 -301 8 -481 -52 -158 -92 -183 -162 -102 -82 96 -161 295 -206 517 -21 105 -66 455 -65 504 1 26 79 -64 106 -123z m4450 11 c-7 -100 -35 -367 -52 -488 -6 -40 -4 -48 9 -48 17 0 28 32 46 135 8 47 37 318 42 395 0 8 18 -82 39 -200 21 -118 49 -265 63 -327 13 -61 22 -123 20 -136 -7 -34 -104 -151 -151 -182 -20 -13 -51 -27 -67 -31 -89 -17 -199 164 -197 326 1 71 17 125 80 265 24 54 49 132 61 193 22 109 46 176 75 205 33 32 39 10 32 -107z m550 15 c14 -26 59 -121 99 -214 77 -174 105 -226 105 -194 0 30 -80 258 -121 346 -21 46 -39 85 -39 87 0 8 107 -65 133 -91 37 -36 90 -147 114 -235 26 -96 25 -281 -2 -335 -28 -56 -56 -58 -105 -6 -79 86 -227 394 -269 561 -25 101 -26 133 -5 155 15 15 18 14 41 -6 13 -13 35 -43 49 -68z m-3894 -196 c36 -70 78 -139 92 -153 23 -24 26 -24 32 -8 4 11 0 29 -10 45 -26 40 -86 164 -86 178 0 19 45 16 88 -6 48 -25 118 -100 143 -154 10 -24 19 -65 19 -95 0 -43 -5 -57 -25 -77 -20 -21 -34 -25 -85 -25 -76 0 -121 22 -190 92 -61 62 -146 223 -136 256 10 30 63 85 78 80 7 -2 43 -62 80 -133z m351 51 c41 -35 98 -77 126 -95 62 -40 102 -93 175 -236 57 -109 86 -152 86 -127 0 7 -27 82 -60 167 -33 85 -60 169 -60 189 0 35 34 87 70 106 36 19 89 -9 175 -91 121 -116 129 -139 100 -302 -24 -139 -49 -194 -103 -228 -117 -74 -214 -18 -387 221 -131 181 -145 204 -190 316 -71 174 -60 186 68 80z m-614 -65 c26 -14 63 -54 120 -130 91 -124 111 -162 111 -219 0 -82 -55 -211 -107 -252 -33 -26 -92 -26 -141 -1 -66 34 -182 172 -241 288 -25 51 -27 109 -4 143 33 50 114 130 118 117 101 -283 114 -317 127 -317 14 0 1 67 -37 190 -44 141 -49 168 -35 185 17 20 43 19 89 -4z m2019 -31 c68 -41 167 -160 266 -317 57 -90 91 -131 101 -121 9 9 -57 127 -143 257 -46 68 -82 131 -80 139 4 22 54 34 109 26 64 -8 99 -45 143 -150 101 -242 96 -404 -14 -404 -38 0 -115 42 -191 102 -86 69 -136 129 -149 181 -6 23 -31 87 -55 142 -68 155 -65 192 13 145z m-678 -169 c0 -13 77 -113 211 -274 165 -198 191 -259 192 -452 1 -143 -36 -195 -140 -195 -30 0 -68 9 -100 24 -64 30 -202 123 -209 141 -7 17 35 328 45 338 5 5 37 -40 72 -99 65 -108 132 -194 143 -183 7 7 -24 67 -123 244 -90 161 -102 199 -108 343 -4 88 -3 122 6 122 6 0 11 -4 11 -9z m620 -23 c48 -79 104 -306 93 -376 -8 -46 -53 -75 -107 -68 -75 9 -180 71 -278 164 -84 80 -218 234 -218 251 0 13 90 51 120 51 25 0 51 -21 159 -130 172 -175 196 -176 62 -2 -31 41 -64 84 -74 97 l-18 24 74 -6 c56 -4 80 -2 103 10 43 24 62 20 84 -15z m-2065 -384 c126 -128 131 -138 120 -243 -15 -145 -56 -260 -112 -313 l-28 -27 -51 23 c-60 28 -216 157 -277 229 -78 91 -96 150 -58 191 25 28 47 100 62 197 7 44 16 76 19 72 4 -5 33 -84 64 -178 93 -273 170 -444 191 -423 3 3 -7 44 -24 90 -16 45 -48 134 -71 197 -48 134 -73 242 -94 406 -9 65 -16 123 -16 128 0 4 36 -47 81 -113 56 -83 117 -158 194 -236z m3120 258 c28 -75 55 -113 93 -129 34 -14 34 -15 28 -61 -37 -269 -51 -422 -38 -422 16 0 40 83 57 195 36 238 48 282 86 309 12 8 28 12 37 9 19 -8 88 -155 104 -222 22 -97 -28 -372 -92 -507 -36 -75 -102 -139 -128 -125 -10 5 -48 78 -84 161 -37 82 -100 210 -142 283 -41 72 -78 144 -81 159 -10 38 7 108 67 274 56 157 61 162 93 76z m-2334 -37 c25 -90 -5 -277 -66 -413 -34 -75 -62 -102 -113 -109 -119 -16 -322 118 -322 213 0 39 33 131 80 223 l32 65 52 -135 c101 -259 144 -345 162 -327 4 4 -10 54 -31 110 -81 223 -125 354 -125 376 0 22 2 23 73 16 81 -7 98 -2 156 48 l33 29 29 -27 c16 -16 34 -46 40 -69z m3505 -365 c-6 -261 -20 -481 -35 -535 -16 -60 11 -76 34 -21 28 67 45 233 55 536 6 167 14 308 19 313 5 5 19 -5 32 -23 13 -18 44 -42 69 -54 63 -30 73 -56 78 -209 8 -246 -30 -507 -94 -636 -46 -94 -132 -185 -189 -200 -66 -18 -130 10 -178 79 -25 35 -22 63 23 215 46 159 80 323 110 530 21 146 47 281 58 299 18 30 24 -64 18 -294z m-1531 188 c151 -172 352 -555 448 -854 54 -166 71 -289 64 -458 -6 -155 -23 -239 -64 -323 -106 -217 -220 -88 -467 529 -84 211 -102 282 -116 460 -16 190 -10 584 9 617 l14 25 21 -27 c85 -106 324 -849 406 -1260 7 -32 14 -57 16 -54 9 9 -37 364 -60 467 -27 118 -148 470 -238 690 -32 80 -68 166 -78 193 -11 26 -16 47 -11 47 5 0 30 -24 56 -52z m-1398 -123 c-7 -148 -30 -270 -66 -349 -37 -81 -57 -97 -119 -98 -94 0 -204 69 -341 214 l-54 58 28 102 c33 126 61 203 79 217 20 17 64 -23 77 -71 9 -34 127 -320 169 -410 16 -35 30 -36 30 -3 0 32 -31 122 -92 264 -27 63 -46 116 -43 119 3 3 52 9 110 12 115 8 136 17 181 76 28 36 28 36 37 12 5 -12 7 -77 4 -143z m1041 45 c79 -53 101 -73 119 -110 30 -63 54 -161 60 -250 5 -65 3 -78 -15 -100 -26 -32 -80 -33 -147 -1 -63 30 -202 170 -269 269 l-49 73 59 60 c32 32 62 59 66 59 4 0 53 -67 109 -150 92 -136 129 -175 129 -136 0 22 -58 124 -144 250 -44 66 -85 127 -89 134 -12 18 49 -17 171 -98z m1802 88 c0 -7 -7 -35 -15 -61 -8 -26 -29 -148 -46 -270 -17 -122 -41 -252 -54 -288 -27 -80 -80 -163 -140 -218 -61 -56 -103 -57 -155 -2 -100 105 -209 388 -213 555 l-2 71 65 11 c88 14 104 24 188 112 l73 77 -6 -205 c-6 -179 -23 -362 -42 -439 -11 -46 21 -16 44 40 27 69 50 225 59 408 8 168 12 174 96 184 30 4 72 13 94 21 50 18 54 19 54 4z m-4861 -152 c16 -34 59 -149 96 -256 72 -211 164 -444 270 -690 37 -85 79 -184 92 -220 14 -36 67 -155 118 -265 98 -210 121 -272 110 -283 -21 -21 -123 154 -245 418 -44 96 -94 201 -111 233 -17 32 -37 85 -45 118 -8 33 -44 133 -80 222 -37 89 -90 227 -119 307 -53 144 -155 475 -155 500 0 26 41 -24 69 -84z m2617 -6 c18 -12 57 -53 86 -93 29 -40 128 -149 220 -243 189 -192 208 -223 216 -341 6 -87 -2 -121 -30 -132 -74 -27 -281 65 -482 215 -128 95 -128 96 -123 131 6 33 75 164 87 162 3 0 30 -29 60 -65 68 -80 266 -274 280 -274 19 0 -5 31 -115 155 -178 200 -265 351 -265 462 0 50 14 55 66 23z m-1579 -580 c16 -36 40 -76 52 -90 l22 -25 -6 30 c-4 17 -37 109 -75 205 -74 189 -90 240 -90 283 0 36 9 34 62 -9 50 -43 113 -73 217 -106 106 -33 116 -49 115 -186 -1 -142 -21 -212 -79 -269 -38 -39 -47 -43 -91 -43 -33 0 -66 9 -102 27 -107 54 -302 246 -302 298 0 12 12 48 26 79 14 30 35 101 47 156 l21 101 76 -193 c42 -106 90 -222 107 -258z m-832 378 c62 -68 175 -223 222 -303 40 -67 109 -224 313 -705 94 -223 201 -468 237 -545 35 -77 67 -146 70 -152 25 -60 -154 89 -230 190 -124 165 -201 320 -390 777 -274 662 -323 800 -288 800 5 0 35 -28 66 -62z m1240 -105 c19 -27 40 -64 46 -83 26 -76 228 -378 236 -353 5 14 -30 85 -109 220 -33 57 -58 108 -56 113 2 6 59 -24 127 -67 111 -69 133 -88 197 -168 94 -116 127 -182 127 -255 0 -59 -17 -103 -53 -135 -17 -15 -39 -21 -99 -23 -115 -6 -144 12 -359 220 l-102 99 -9 221 c-11 285 -8 295 54 211z m2769 -20 c-2 -38 -9 -176 -14 -308 -11 -259 -27 -500 -36 -553 -10 -62 13 -24 35 55 26 98 38 212 47 426 3 92 10 169 14 172 4 3 27 -21 51 -53 23 -31 65 -84 94 -117 99 -115 99 -118 60 -271 -48 -184 -143 -381 -233 -484 -71 -81 -77 -76 -133 120 -26 91 -57 187 -68 214 -13 29 -27 97 -36 170 -8 67 -19 144 -25 172 -13 60 -4 89 44 149 61 75 133 210 186 350 15 40 19 29 14 -42z m-1860 -147 c47 -14 71 -30 136 -92 105 -101 154 -172 145 -212 -18 -85 -103 -162 -178 -162 -45 0 -149 35 -217 72 -125 69 -276 203 -317 281 -14 28 -13 31 26 89 23 34 41 72 41 85 0 12 5 23 11 23 7 0 101 -88 210 -195 176 -174 219 -211 219 -188 0 12 -55 79 -160 193 -125 137 -180 201 -180 211 0 5 47 -14 104 -40 57 -27 129 -56 160 -65z m3953 37 c4 -10 -27 -52 -129 -178 -64 -80 -82 -142 -83 -281 0 -93 3 -115 18 -131 36 -40 24 -74 -86 -246 -106 -168 -113 -201 -77 -385 11 -56 20 -124 20 -150 0 -105 -66 -164 -578 -512 -313 -213 -440 -292 -455 -283 -16 10 0 98 29 159 44 94 228 264 285 264 9 0 53 31 98 68 44 38 125 93 178 122 54 29 121 67 148 84 54 33 145 113 145 127 0 17 -24 8 -105 -41 -88 -53 -152 -80 -192 -80 -37 0 -76 -24 -155 -96 -80 -72 -221 -170 -253 -176 -30 -5 -30 25 4 179 34 156 76 433 86 567 4 55 13 103 25 125 33 65 321 331 535 494 55 41 170 132 255 201 145 118 253 189 274 183 6 -2 11 -8 13 -14z m-5745 -69 c17 -9 41 -14 55 -11 22 4 28 -4 67 -82 24 -47 96 -207 160 -354 265 -608 430 -930 580 -1131 36 -49 66 -93 66 -99 0 -5 -13 -7 -30 -3 -156 31 -273 170 -461 546 -174 350 -455 1000 -485 1123 -7 32 3 34 48 11z m-391 -289 c50 -121 128 -305 174 -410 113 -261 120 -283 119 -390 -1 -126 -37 -200 -79 -165 -32 26 -83 220 -104 395 -30 247 -31 254 -41 260 -5 3 -16 -10 -24 -30 -44 -104 -114 -8 -152 206 -18 105 -29 294 -20 344 6 33 9 36 22 24 8 -8 55 -114 105 -234z m6111 114 c-51 -178 -51 -177 19 -260 48 -58 50 -72 15 -203 -14 -54 -26 -116 -26 -139 0 -134 -32 -204 -170 -371 l-73 -88 -25 58 c-67 155 -30 293 137 515 34 44 61 88 61 98 0 10 -16 39 -36 64 -38 49 -40 69 -16 143 8 24 6 39 -6 64 -15 31 -15 35 4 66 23 40 135 167 141 161 2 -3 -9 -51 -25 -108z m-5391 -42 c173 -151 197 -191 416 -672 58 -126 158 -338 223 -470 97 -197 130 -254 185 -320 81 -97 92 -115 70 -115 -53 0 -241 170 -321 290 -100 149 -247 429 -447 845 -176 368 -239 515 -219 515 5 0 47 -33 93 -73z m2364 -22 c9 -31 24 -70 35 -85 11 -15 24 -49 30 -76 14 -63 68 -197 140 -350 105 -222 168 -314 256 -375 28 -19 46 -41 55 -66 16 -50 6 -185 -19 -252 -27 -69 -68 -131 -88 -131 -32 0 -291 284 -451 495 -123 162 -468 765 -445 779 4 2 66 -11 137 -30 72 -18 156 -36 188 -40 91 -10 105 -33 276 -454 50 -124 114 -270 141 -325 45 -90 50 -96 45 -58 -3 23 -30 101 -61 175 -171 403 -264 691 -264 815 0 58 6 52 25 -22z m1425 -72 c35 -32 76 -78 92 -102 24 -39 28 -55 28 -121 0 -42 -11 -139 -25 -215 -14 -76 -24 -145 -22 -154 7 -26 45 68 67 165 11 49 27 121 36 159 21 90 40 122 87 146 21 11 67 45 104 76 l66 56 -7 -59 c-20 -164 -54 -279 -125 -429 -81 -168 -197 -300 -258 -293 -22 2 -34 14 -54 52 -50 93 -129 413 -129 526 0 90 43 250 68 250 5 0 37 -26 72 -57z m-3338 -47 c5 -21 28 -84 52 -140 25 -56 70 -169 101 -251 124 -327 363 -824 464 -966 33 -46 57 -87 53 -91 -5 -5 -30 -1 -56 8 -64 22 -161 114 -226 214 -79 124 -400 753 -400 784 0 4 -35 86 -77 184 -56 130 -77 189 -77 222 l-1 45 50 17 c28 10 63 17 80 15 25 -2 30 -7 37 -41z m1385 -39 c17 -23 76 -124 131 -224 134 -242 207 -357 325 -516 190 -254 232 -325 294 -496 19 -53 37 -98 40 -101 9 -9 -7 91 -28 169 -11 40 -18 75 -17 76 2 2 43 -26 91 -61 54 -39 102 -66 125 -69 72 -12 72 -14 48 -132 -21 -97 -48 -154 -91 -192 -35 -30 -43 -33 -90 -29 -73 6 -195 69 -271 141 -122 114 -235 328 -402 762 -121 314 -177 486 -206 625 -21 108 -4 124 51 47z m-1202 -57 c129 -115 194 -199 236 -305 59 -149 196 -458 333 -753 75 -161 136 -297 136 -303 0 -16 -58 -1 -107 27 -51 29 -124 111 -174 193 -38 62 -256 531 -332 712 -24 57 -78 183 -119 279 -77 178 -104 254 -88 248 5 -2 57 -46 115 -98z m696 22 c43 -28 93 -83 118 -130 7 -12 32 -80 56 -150 102 -299 279 -772 319 -856 24 -50 64 -120 90 -155 72 -101 61 -118 -28 -46 -89 73 -192 198 -205 249 -6 24 -63 169 -127 322 -63 154 -135 332 -160 397 -42 113 -124 368 -124 388 0 15 14 11 61 -19z m-105 -104 c15 -29 62 -152 104 -273 141 -399 266 -683 394 -895 24 -41 42 -78 39 -83 -3 -5 -24 -7 -46 -4 -82 11 -126 84 -325 542 -157 363 -242 605 -242 695 0 27 25 70 40 70 5 0 22 -24 36 -52z m488 33 c18 -20 66 -142 238 -601 121 -325 186 -467 278 -609 76 -116 155 -201 242 -258 37 -24 70 -47 73 -52 3 -5 -9 -12 -26 -16 -83 -18 -194 32 -259 119 -150 199 -350 662 -526 1219 -63 198 -68 251 -20 198z m-124 -38 c25 -23 42 -61 90 -203 32 -96 79 -223 104 -281 25 -59 52 -136 60 -172 9 -37 57 -167 107 -289 103 -250 131 -328 121 -328 -55 0 -169 194 -287 490 -47 117 -275 779 -275 797 0 23 48 14 80 -14z m-537 -114 c19 -8 38 -33 56 -68 41 -82 126 -295 151 -376 42 -138 210 -505 279 -613 48 -74 61 -112 37 -112 -8 0 -40 9 -70 20 -105 40 -195 171 -338 494 -61 138 -276 674 -272 678 7 8 130 -10 157 -23z m3183 -340 c-40 -351 -169 -838 -266 -1006 -39 -68 -100 -110 -138 -97 -36 12 -70 82 -84 170 -21 137 3 481 48 667 16 65 19 70 73 109 31 23 82 64 114 91 46 40 57 45 57 29 0 -28 -96 -546 -125 -677 -28 -124 -29 -135 -14 -135 26 0 66 159 139 550 49 262 94 427 153 560 l42 95 8 -108 c7 -81 5 -143 -7 -248z m-544 -12 l41 -127 -17 -168 c-39 -376 -88 -630 -141 -731 -64 -121 -177 -241 -228 -241 -27 0 -47 41 -47 97 0 28 10 114 21 190 31 202 31 449 0 646 -13 82 -21 163 -18 181 3 18 31 68 62 112 32 43 83 123 114 176 31 53 58 97 61 98 7 0 7 3 -15 -230 -18 -187 -64 -518 -100 -725 -14 -76 -25 -148 -25 -160 1 -41 30 32 55 140 38 160 71 362 100 603 26 219 40 322 52 377 5 27 8 23 25 -40 10 -38 37 -127 60 -198z m-518 66 c75 -339 101 -572 93 -845 -6 -216 -18 -269 -77 -328 -112 -112 -272 -15 -288 175 -7 94 48 688 74 791 18 72 34 -7 64 -310 11 -115 26 -243 33 -285 l12 -76 3 85 c4 102 -14 385 -34 529 -18 133 -18 175 1 211 8 16 24 69 36 117 29 127 30 129 39 112 5 -8 24 -87 44 -176z m-3409 -348 c33 -69 49 -191 50 -377 0 -166 -7 -195 -40 -168 -42 34 -119 232 -150 379 -17 80 -21 220 -9 298 l7 47 59 -64 c32 -36 69 -87 83 -115z m350 -270 c76 -98 147 -204 297 -445 251 -405 497 -765 623 -915 79 -95 97 -131 48 -100 -62 39 -185 181 -317 363 -82 114 -658 991 -713 1087 -23 39 -66 105 -97 148 -31 43 -56 81 -56 85 0 14 155 -147 215 -223z m94 -346 c133 -207 258 -407 279 -446 35 -63 75 -120 192 -272 53 -70 118 -179 129 -218 11 -37 -11 -92 -59 -147 -48 -55 -69 -47 -91 35 -10 36 -44 122 -77 190 -32 68 -75 169 -96 224 -62 166 -86 179 -67 38 13 -93 6 -156 -24 -213 -29 -57 -52 -45 -99 49 -15 30 -47 82 -72 115 -26 33 -56 81 -69 106 -24 46 -58 160 -48 160 3 0 31 -23 62 -52 72 -65 109 -83 134 -61 13 13 17 33 17 96 0 86 -6 90 -30 24 -9 -23 -22 -43 -31 -45 -33 -6 -168 161 -194 240 -7 24 -18 98 -24 164 -5 67 -17 137 -25 155 -14 32 -15 26 -13 -113 2 -163 -5 -187 -43 -146 -68 72 -90 170 -97 433 l-5 210 55 -75 c30 -41 164 -244 296 -451z m70 330 c185 -146 327 -337 756 -1019 260 -413 298 -485 240 -453 -61 34 -293 297 -438 495 -121 167 -355 520 -378 573 -11 25 -43 78 -72 118 -44 62 -177 302 -177 321 0 14 21 4 69 -35z m397 -174 c85 -35 205 -192 434 -565 225 -367 382 -607 459 -699 81 -98 91 -114 80 -128 -30 -36 -130 6 -217 90 -91 89 -264 321 -305 410 -9 20 -99 164 -199 320 -346 537 -357 555 -343 577 9 15 51 12 91 -5z m354 -120 c57 -30 205 -235 319 -442 33 -60 100 -178 150 -262 50 -85 91 -161 91 -168 0 -7 25 -42 55 -78 31 -36 64 -85 74 -108 10 -23 48 -75 85 -115 70 -77 83 -112 42 -112 -32 0 -129 73 -195 146 -63 71 -202 261 -290 398 -87 135 -400 683 -408 713 -10 41 26 54 77 28z m780 -1 c37 -22 89 -105 190 -299 215 -416 387 -724 450 -810 52 -70 64 -95 51 -108 -15 -15 -92 17 -149 62 -60 48 -148 156 -204 251 -107 182 -440 830 -453 882 -6 23 -4 27 22 31 54 8 65 7 93 -9z m173 5 c56 -29 85 -79 296 -504 213 -429 308 -601 373 -677 69 -82 -9 -49 -93 38 -102 108 -211 292 -455 769 -153 300 -178 357 -161 374 14 14 13 14 40 0z m-660 -20 c82 -21 87 -29 392 -579 208 -374 310 -538 395 -632 l52 -58 -67 0 c-98 0 -160 38 -258 157 -105 130 -207 295 -392 638 -54 99 -138 248 -186 332 -49 83 -89 154 -89 158 0 9 98 -2 153 -16z m298 -49 c23 -25 100 -164 203 -368 242 -478 341 -643 446 -747 79 -78 68 -89 -42 -43 -92 39 -222 206 -382 493 -110 197 -336 654 -336 679 0 50 60 42 111 -14z m2039 -217 c-32 -223 -69 -438 -91 -532 -10 -46 -18 -86 -15 -88 10 -10 48 56 66 114 18 60 29 113 80 401 12 67 26 125 31 128 6 3 28 -11 51 -31 39 -36 42 -37 94 -30 44 5 55 4 60 -9 8 -21 -22 -194 -57 -337 -38 -152 -132 -422 -167 -479 -52 -86 -119 -96 -202 -30 -76 60 -104 152 -142 472 -17 143 -19 192 -11 211 6 13 36 38 67 55 117 67 215 199 239 324 12 63 12 63 15 21 2 -24 -6 -109 -18 -190z m-1393 112 c85 -75 142 -103 185 -91 33 8 66 -15 87 -58 11 -23 42 -104 69 -181 72 -203 115 -310 199 -489 41 -88 77 -174 80 -193 5 -31 4 -33 -23 -33 -49 0 -144 61 -197 126 -87 106 -208 331 -391 727 -90 194 -118 267 -102 267 4 0 45 -34 93 -75z m576 -1 c46 -46 107 -165 142 -274 14 -47 55 -201 91 -343 35 -141 71 -272 79 -290 15 -32 15 -32 9 23 -8 76 -67 366 -107 532 -19 75 -31 141 -28 147 4 5 35 14 69 20 34 5 75 19 91 30 22 16 31 18 39 8 6 -6 27 -86 48 -177 l38 -165 1 -230 c0 -191 -3 -241 -18 -295 -53 -191 -108 -214 -220 -89 -92 102 -256 404 -351 646 -58 149 -139 435 -125 443 6 4 35 10 64 14 29 3 68 12 86 21 48 20 51 19 92 -21z m-2919 -37 c29 -30 66 -56 85 -62 19 -6 43 -22 54 -37 25 -34 33 -112 17 -176 -12 -53 -44 -93 -60 -76 -27 28 -160 351 -160 390 0 23 12 16 64 -39z m4191 -361 c203 -31 329 -110 805 -502 235 -194 343 -270 468 -333 135 -68 161 -72 499 -79 166 -4 305 -11 309 -15 4 -4 -2 -21 -14 -37 -13 -17 -22 -44 -22 -64 0 -71 102 -270 191 -371 47 -53 144 -113 221 -135 77 -24 137 -70 168 -129 23 -46 72 -289 68 -338 -5 -56 -37 -56 -113 2 -77 58 -291 165 -330 165 -18 0 -57 -18 -98 -44 -37 -25 -107 -59 -155 -76 -256 -93 -435 -76 -682 65 -63 36 -152 84 -198 106 -74 37 -104 61 -275 228 -303 293 -417 387 -563 468 -38 21 -213 87 -388 148 -212 73 -323 116 -330 128 -9 15 -5 23 22 48 62 56 123 40 497 -126 309 -137 390 -192 740 -500 241 -212 341 -295 443 -368 199 -142 336 -180 513 -143 125 27 299 110 299 143 0 21 -40 14 -225 -43 -82 -25 -176 -48 -208 -51 -52 -5 -64 -2 -130 30 -134 66 -315 204 -642 487 -303 263 -501 415 -564 435 -14 4 -54 26 -90 48 -137 84 -414 197 -483 197 -63 0 -73 77 -21 158 24 37 32 42 64 42 139 0 533 -208 759 -400 169 -144 364 -270 419 -270 38 0 10 29 -93 100 -55 38 -153 112 -216 165 -134 111 -290 218 -445 304 -115 64 -249 121 -285 121 -26 0 -77 25 -107 53 -33 29 -30 74 17 243 22 80 40 148 40 150 0 7 43 4 135 -10z m-4376 -43 c30 -8 93 -18 140 -23 47 -5 101 -12 119 -16 22 -4 40 -1 57 10 13 9 31 16 39 16 25 0 109 -104 156 -195 31 -58 55 -93 77 -106 l32 -21 54 51 c30 28 59 51 65 51 30 0 100 -161 128 -295 8 -39 22 -75 31 -82 9 -7 39 -13 66 -13 26 0 57 -4 67 -10 10 -5 58 -90 107 -187 l88 -178 0 -81 c0 -78 -2 -84 -38 -137 -21 -30 -45 -58 -54 -61 -10 -4 -32 9 -59 34 -61 56 -84 54 -149 -16 l-52 -57 -21 21 c-34 34 -62 98 -62 142 0 24 11 61 25 90 31 61 31 69 0 98 -35 34 -66 125 -72 215 -3 43 -9 80 -13 82 -4 3 -13 -15 -19 -40 -21 -82 -45 -47 -62 88 -17 140 -71 206 -179 225 -39 7 -79 23 -108 42 -50 34 -45 33 -199 14 -85 -11 -133 12 -133 62 0 31 -15 30 -54 -3 -38 -32 -86 -53 -124 -53 -15 0 -45 -9 -67 -20 -60 -30 -81 -26 -153 28 l-33 25 74 76 c98 100 103 110 69 138 l-27 22 26 27 c35 34 123 65 169 58 19 -3 59 -12 89 -21z m1163 -570 c34 -100 48 -198 27 -191 -36 11 -99 197 -85 253 11 43 29 24 58 -62z m124 -2 c89 -58 104 -79 130 -183 55 -219 97 -424 149 -731 61 -363 71 -410 185 -907 93 -402 114 -478 205 -740 82 -236 112 -312 177 -453 28 -60 47 -111 44 -114 -10 -10 -84 45 -166 123 -58 56 -89 95 -118 152 -160 308 -294 829 -481 1877 -28 154 -71 397 -97 540 -25 143 -58 308 -73 368 -15 59 -24 107 -21 107 4 0 33 -17 66 -39z m2374 20 c5 -11 10 -29 10 -40 0 -28 -30 -101 -41 -101 -10 0 -12 143 -2 153 11 12 22 8 33 -12z m-529 -136 c149 -31 266 -112 326 -226 25 -48 28 -64 28 -149 0 -80 -4 -102 -23 -138 -51 -95 -149 -131 -317 -115 -114 11 -167 32 -308 127 -130 86 -487 396 -487 422 0 15 86 41 197 61 l92 16 166 -159 c199 -191 353 -332 378 -346 40 -21 -7 35 -171 204 -170 176 -234 249 -245 280 -4 10 1 25 11 34 14 15 33 16 148 11 72 -4 165 -14 205 -22z m717 -11 c25 -16 27 -33 8 -86 -26 -73 -207 -378 -225 -378 -15 0 -71 126 -71 161 0 60 119 276 173 314 25 18 78 13 115 -11z m-2302 -13 c66 -49 122 -114 147 -171 34 -78 59 -176 126 -505 144 -701 186 -885 237 -1047 19 -62 39 -151 44 -201 7 -68 15 -98 34 -126 13 -20 27 -56 31 -81 16 -110 166 -573 258 -796 72 -175 64 -210 -33 -139 -198 146 -350 497 -545 1260 -123 481 -191 817 -325 1610 -42 249 -42 246 26 196z m236 3 c132 -31 173 -52 335 -173 172 -129 358 -287 713 -605 574 -516 844 -731 1091 -873 143 -82 190 -97 286 -96 54 0 83 -3 86 -11 7 -18 -20 -89 -40 -103 -27 -20 -112 -15 -173 10 -95 40 -444 264 -665 429 -77 57 -376 302 -665 544 -609 509 -673 561 -917 753 -101 78 -183 144 -183 147 0 7 18 4 132 -22z m455 -80 c120 -76 311 -240 653 -558 608 -566 679 -622 854 -676 70 -22 152 -73 241 -150 64 -55 115 -87 115 -71 0 6 -48 57 -106 115 -63 62 -104 111 -102 120 1 9 21 41 43 71 l40 56 39 -43 c93 -102 206 -313 214 -400 6 -59 -10 -78 -63 -78 -129 0 -679 403 -1182 867 -219 202 -292 266 -554 486 -239 200 -319 275 -319 298 0 21 67 2 127 -37z m1373 26 c0 -36 -89 -138 -109 -126 -18 12 -13 22 40 80 50 54 69 67 69 46z m-1665 -252 c100 -108 144 -258 265 -918 84 -457 108 -572 192 -905 89 -359 198 -699 282 -883 31 -68 56 -130 56 -138 0 -39 -98 14 -166 88 -68 75 -160 304 -312 768 -87 266 -144 482 -221 830 -73 334 -87 402 -136 670 -24 135 -65 332 -90 439 -25 106 -45 195 -45 198 0 11 127 -97 175 -149z m1942 21 c13 -46 63 -474 63 -535 0 -51 -17 -40 -69 47 -25 41 -80 110 -123 155 l-77 80 67 125 c111 202 117 208 139 128z m2717 -178 c31 -49 75 -106 97 -126 55 -50 133 -85 189 -85 72 0 120 -17 131 -47 5 -14 25 -51 44 -82 36 -60 38 -73 35 -191 l-3 -75 -12 87 c-7 49 -22 105 -32 125 -27 51 -87 95 -175 128 -115 43 -186 85 -229 133 -61 69 -133 222 -104 222 2 0 29 -40 59 -89z m-4384 -57 c115 -88 192 -160 213 -200 19 -37 82 -302 96 -407 16 -111 13 -359 -4 -517 -14 -124 -62 -440 -68 -446 -2 -2 -22 95 -45 214 -24 119 -74 359 -112 532 -38 173 -83 387 -100 475 -26 132 -72 333 -97 419 -7 24 -3 21 117 -70z m1475 -98 c125 -174 219 -349 230 -424 3 -27 2 -67 -4 -88 -11 -39 -56 -91 -98 -113 -82 -42 -209 23 -430 221 -112 100 -371 342 -368 345 1 2 44 -4 96 -13 148 -25 186 -49 446 -271 163 -140 211 -178 219 -170 5 4 -280 309 -375 402 l-51 49 107 108 c59 60 110 108 113 108 3 0 55 -69 115 -154z m-1089 -211 c93 -93 96 -116 33 -274 l-33 -84 -22 109 c-11 60 -33 149 -48 197 -15 48 -24 92 -21 97 13 21 38 8 91 -45z m204 -195 c6 -11 18 -95 25 -186 9 -91 22 -181 30 -201 14 -33 14 -42 -1 -91 -8 -30 -54 -131 -100 -224 -97 -195 -127 -265 -115 -273 12 -6 50 56 146 235 106 197 156 272 197 292 18 8 69 45 113 82 43 36 83 66 87 66 16 0 7 -43 -22 -101 -42 -83 -88 -157 -256 -410 -80 -121 -151 -234 -158 -250 -20 -48 -93 -118 -131 -125 -77 -14 -111 53 -102 204 10 177 160 849 212 953 28 53 56 64 75 29z m145 -106 c22 -9 45 -57 45 -94 0 -37 6 -38 32 -5 11 14 23 25 28 25 16 0 70 -52 70 -67 0 -31 -143 -143 -182 -143 -26 0 -48 41 -60 112 -13 74 -5 131 23 159 21 21 21 21 44 13z m457 -373 c47 -34 93 -72 101 -85 37 -56 56 -161 141 -756 92 -640 94 -747 20 -847 -36 -48 -156 -104 -238 -110 -60 -5 -72 -3 -130 26 -141 69 -235 230 -339 581 -88 298 -127 475 -127 583 0 73 11 107 36 107 8 0 24 21 35 47 38 89 180 307 207 317 19 8 31 -32 57 -208 31 -200 74 -416 87 -436 23 -36 -20 320 -68 554 -35 174 -33 195 22 273 l46 64 31 -24 c18 -13 71 -52 119 -86z m305 -210 c103 -81 116 -113 152 -371 45 -321 66 -689 45 -775 -11 -47 -39 -97 -72 -128 l-29 -28 -2 55 c0 30 -28 214 -60 408 -82 486 -135 843 -128 862 10 26 42 18 94 -23z m263 -156 c97 -49 112 -76 130 -235 22 -205 32 -436 21 -514 -13 -89 -44 -160 -84 -190 -44 -33 -50 -15 -59 167 -9 207 -47 559 -83 775 -3 17 -3 32 0 32 3 0 37 -16 75 -35z m-1176 -477 c19 -62 55 -185 81 -273 103 -357 146 -468 224 -584 23 -33 41 -63 41 -67 0 -13 -134 7 -177 26 -122 54 -212 180 -296 415 -49 136 -167 510 -167 528 0 11 11 13 48 10 36 -3 62 3 112 26 36 16 73 29 82 30 14 1 25 -24 52 -111z"/>
<path d="M5995 11791 c-9 -16 65 -69 177 -126 58 -30 112 -55 118 -55 20 0 -48 77 -97 109 -25 17 -59 31 -73 31 -15 0 -44 11 -64 25 -40 27 -52 30 -61 16z"/>
<path d="M6340 11629 c0 -16 111 -124 148 -143 58 -30 129 -37 274 -27 194 14 228 33 228 127 0 41 -9 43 -41 8 -67 -72 -234 -106 -334 -68 -71 27 -77 28 -87 10 -12 -21 -28 -12 -104 54 -55 48 -84 62 -84 39z"/>
<path d="M4856 12331 c-9 -14 48 -70 108 -106 33 -19 63 -35 68 -35 4 0 8 13 8 28 0 28 -28 63 -60 74 -8 3 -38 15 -67 27 -29 11 -54 17 -57 12z"/>
<path d="M5170 10231 c1 -9 205 -101 242 -108 l33 -6 -25 28 c-14 15 -44 36 -68 47 -45 20 -182 50 -182 39z"/>
<path d="M5030 10097 c0 -17 51 -98 73 -116 22 -17 22 -3 2 47 -24 57 -75 104 -75 69z"/>
<path d="M7936 10192 c-11 -18 12 -154 29 -171 37 -37 39 51 3 130 -16 35 -27 49 -32 41z"/>
<path d="M8300 9967 c0 -39 80 -197 100 -197 16 0 2 48 -39 129 -34 71 -61 100 -61 68z"/>
<path d="M6130 9778 c0 -29 46 -101 87 -138 69 -60 144 -94 197 -88 57 7 133 44 153 75 19 28 21 79 5 95 -7 7 -18 -4 -36 -41 -15 -28 -37 -58 -51 -67 -55 -36 -171 11 -276 112 -67 65 -79 73 -79 52z"/>
<path d="M7252 9731 c-39 -48 -134 -97 -206 -106 -65 -8 -154 9 -219 42 -27 13 -54 22 -60 20 -16 -6 52 -70 98 -91 161 -77 435 8 435 135 0 42 -14 42 -48 0z"/>
<path d="M7640 9713 c-27 -12 -57 -14 -138 -10 -93 5 -103 4 -100 -11 2 -10 27 -27 58 -40 43 -18 70 -22 124 -19 60 2 71 6 92 30 26 30 32 68 12 66 -7 0 -29 -8 -48 -16z"/>
<path d="M6554 9341 c34 -64 124 -121 193 -121 71 0 173 73 173 123 0 25 -13 21 -86 -29 -46 -32 -77 -46 -100 -46 -43 0 -121 39 -146 74 -10 16 -26 28 -34 28 -13 0 -13 -4 0 -29z"/>
<path d="M7411 9330 c-54 -33 -82 -43 -131 -42 -3 0 -32 3 -65 6 l-60 6 33 -29 c68 -59 181 -65 254 -15 37 26 78 80 78 103 0 22 -46 10 -109 -29z"/>
<path d="M7155 8993 c-32 -12 -68 -14 -177 -9 -76 3 -138 2 -138 -2 0 -23 167 -102 217 -102 51 0 147 62 174 111 8 16 6 19 -13 18 -13 0 -41 -7 -63 -16z"/>
<path d="M7221 8483 c27 -35 55 -52 99 -63 56 -13 103 0 98 28 -3 14 -17 18 -78 23 -41 3 -85 10 -97 17 -30 17 -38 15 -22 -5z"/>
<path d="M4710 9744 c0 -14 12 -71 26 -127 31 -124 68 -186 140 -234 85 -56 136 -44 175 42 29 63 22 69 -24 20 -24 -25 -50 -45 -59 -45 -29 0 -100 62 -139 122 -39 62 -69 141 -69 185 0 32 -17 63 -35 63 -9 0 -15 -10 -15 -26z"/>
<path d="M4897 9608 c-2 -8 3 -42 11 -76 12 -45 21 -62 32 -60 22 4 24 67 3 107 -20 38 -38 49 -46 29z"/>
<path d="M4238 9365 c-25 -89 -33 -139 -20 -131 18 11 43 103 40 148 l-3 43 -17 -60z"/>
<path d="M4494 9303 c4 -21 11 -92 16 -157 7 -86 14 -124 25 -135 14 -14 17 -14 25 -1 18 29 6 125 -32 258 -22 76 -44 99 -34 35z"/>
<path d="M5010 9161 c0 -51 90 -310 129 -370 55 -86 -30 240 -92 352 -23 40 -37 48 -37 18z"/>
<path d="M4570 8741 c0 -56 27 -179 49 -220 22 -43 41 -51 41 -18 0 28 -44 208 -61 250 -16 39 -29 33 -29 -12z"/>
<path d="M8510 8445 c0 -25 5 -45 10 -45 6 0 10 20 10 45 0 25 -4 45 -10 45 -5 0 -10 -20 -10 -45z"/>
<path d="M6780 7951 c0 -10 9 -29 20 -42 l19 -24 1 23 c0 28 -17 62 -30 62 -6 0 -10 -9 -10 -19z"/>
<path d="M9967 6171 c-160 -82 -337 -214 -337 -252 0 -14 45 11 220 123 177 114 220 145 220 159 0 17 -25 10 -103 -30z"/>
<path d="M8200 1085 c0 -34 69 -358 89 -415 19 -53 20 -54 20 -20 1 61 -75 396 -100 440 -7 12 -8 11 -9 -5z"/>
<path d="M4040 2759 c-65 -39 -98 -79 -66 -79 17 0 113 86 106 94 -3 3 -21 -4 -40 -15z"/>
<path d="M3510 2420 c-19 -10 -96 -69 -170 -130 -141 -116 -377 -285 -540 -385 -138 -85 -190 -128 -331 -272 -150 -152 -247 -264 -295 -338 -38 -60 -62 -80 -111 -88 -18 -4 -51 -18 -73 -33 -53 -35 -369 -386 -400 -444 -10 -19 -10 -20 7 -11 10 5 72 61 139 123 141 133 182 166 261 214 98 58 198 151 383 354 234 258 291 311 532 491 341 256 653 516 638 532 -3 3 -21 -3 -40 -13z"/>
<path d="M1239 343 c-89 -96 -239 -298 -239 -322 0 -45 117 76 217 224 85 126 97 178 22 98z"/>
</g>
</svg>