<?xml version="1.0" standalone="no"?>
<!DOCTYPE svg PUBLIC "-//W3C//DTD SVG 20010904//EN"
 "http://www.w3.org/TR/2001/REC-SVG-20010904/DTD/svg10.dtd">
<svg version="1.0" xmlns="http://www.w3.org/2000/svg"
 width="460.000000pt" height="460.000000pt" viewBox="0 0 460.000000 460.000000"
 preserveAspectRatio="xMidYMid meet">

<g transform="translate(0.000000,460.000000) scale(0.100000,-0.100000)"
fill="#000000" stroke="none">
<path d="M1100 3871 c-22 -7 -19 -9 30 -25 30 -10 59 -22 63 -26 4 -4 -29 -10
-75 -13 -242 -19 -312 -32 -518 -99 -107 -35 -160 -59 -179 -82 -12 -14 -2
-16 105 -16 l119 0 -85 -47 c-97 -54 -245 -192 -256 -240 -4 -15 -37 -60 -74
-99 -37 -39 -72 -86 -78 -104 l-12 -32 30 6 c17 3 44 9 61 12 l31 7 -47 -64
c-26 -35 -62 -93 -80 -129 -38 -76 -78 -190 -70 -198 3 -3 19 2 34 11 16 9 31
17 34 17 3 0 -5 -32 -19 -72 -13 -39 -21 -74 -18 -77 3 -3 26 16 50 43 24 28
46 48 48 45 3 -3 -2 -27 -10 -54 -15 -50 -33 -295 -21 -295 4 0 16 22 27 49
21 47 90 127 90 103 0 -7 -9 -45 -20 -84 -15 -54 -20 -103 -20 -189 0 -130 9
-239 20 -239 4 0 25 30 46 66 40 69 91 121 105 107 4 -4 19 -46 33 -93 30 -96
70 -187 59 -135 -3 17 -11 41 -18 55 -18 36 -35 123 -35 180 0 28 -5 50 -10
50 -25 0 -71 -33 -115 -82 l-47 -53 7 90 c7 93 50 369 60 386 11 17 -22 9 -81
-21 -32 -16 -60 -28 -62 -26 -10 11 35 152 69 215 l39 73 -36 -6 c-19 -4 -42
-10 -50 -13 -23 -9 -16 12 21 58 19 24 35 47 35 51 0 3 -24 0 -52 -8 -71 -19
-71 -19 -52 19 41 79 120 179 194 243 72 62 78 69 56 72 -14 2 -51 -2 -82 -7
-32 -6 -60 -9 -62 -6 -14 14 118 121 189 154 24 12 73 32 109 46 l65 25 -102
-6 c-57 -3 -103 -3 -103 0 0 10 105 83 157 110 29 14 98 39 154 54 l102 29
-39 15 c-22 8 -64 21 -94 27 -80 18 -85 20 -73 32 18 18 185 39 313 39 110 0
175 -6 285 -26 24 -4 27 -3 15 6 -12 9 -9 10 13 6 31 -7 34 0 10 27 -18 19
-17 20 20 13 46 -9 47 2 6 49 -48 54 -53 56 306 -78 262 -98 384 -166 489
-272 52 -53 112 -151 127 -210 7 -25 8 -22 5 17 -10 132 -132 266 -336 368
-116 58 -525 222 -615 246 -53 15 -143 17 -185 5z"/>
<path d="M993 3599 c-17 -5 -59 -25 -92 -43 -97 -55 -191 -142 -133 -123 59
20 192 60 217 67 l30 7 -25 6 c-14 4 -33 6 -42 4 -37 -5 -18 20 43 55 63 37
64 45 2 27z"/>
<path d="M1830 3490 c0 -5 4 -10 10 -10 11 0 82 -61 77 -66 -1 -2 -31 6 -66
16 -34 11 -82 20 -104 19 l-42 -1 50 -14 c60 -18 176 -70 223 -102 41 -27 48
-24 34 17 -19 53 -61 98 -118 125 -61 29 -64 30 -64 16z"/>
<path d="M1365 3240 c-81 -20 -166 -26 -207 -15 -23 6 -23 6 -3 -10 11 -9 45
-23 75 -31 181 -50 187 -53 221 -95 l33 -41 13 45 c16 54 44 77 94 77 48 0 55
-10 25 -34 -34 -29 -42 -66 -19 -95 26 -32 76 -31 111 2 35 33 38 33 46 2 8
-31 -14 -76 -50 -104 l-27 -21 65 0 c68 0 194 29 266 60 35 16 42 16 42 4 0
-26 -70 -91 -126 -118 -92 -44 -142 -50 -286 -37 -183 17 -240 -3 -240 -84 0
-79 72 -112 250 -115 34 0 27 -13 -25 -40 -146 -77 -289 -280 -344 -485 -24
-90 -39 -305 -21 -305 6 0 14 10 18 23 14 47 128 287 136 287 4 0 8 -17 8 -39
0 -49 10 -101 20 -101 4 0 11 24 14 53 13 94 99 307 125 307 4 0 -1 -30 -10
-67 -33 -125 -19 -151 30 -55 16 31 37 66 46 77 l16 20 -5 -20 c-13 -50 -26
-167 -25 -240 l1 -80 33 130 c37 148 67 237 93 274 17 25 17 23 22 -99 l5
-125 22 35 c13 19 28 59 34 90 17 86 19 88 32 65 8 -13 12 -75 12 -177 0 -87
3 -158 6 -158 11 0 37 74 48 136 7 39 7 83 1 129 -12 88 -12 87 -1 81 4 -3 18
-32 30 -65 30 -81 45 -89 39 -20 -3 30 -9 63 -13 73 -16 37 14 6 65 -66 49
-69 66 -78 34 -17 -8 17 -13 33 -10 36 5 5 60 -77 89 -133 29 -56 57 -190 57
-270 0 -72 -16 -154 -29 -154 -3 0 -21 32 -40 70 -18 39 -50 92 -70 118 l-36
47 -10 -65 -10 -65 -23 33 c-13 17 -28 32 -33 32 -5 0 -9 -36 -9 -79 0 -122
-46 -318 -76 -328 -5 -2 -10 33 -11 76 -1 56 -7 93 -22 127 -26 58 -30 56 -94
-66 -63 -120 -98 -170 -166 -232 -57 -53 -148 -114 -157 -105 -2 2 3 23 11 47
28 80 15 72 -30 -18 -25 -49 -45 -92 -45 -96 0 -12 98 32 154 69 78 52 184
169 242 270 27 47 52 85 57 85 4 0 7 -38 7 -84 0 -86 -17 -187 -44 -263 -10
-29 -11 -40 -3 -37 13 5 107 141 131 191 30 61 73 188 80 236 8 53 22 54 32 2
15 -80 33 -43 43 85 l6 85 24 -45 c19 -35 26 -65 29 -131 4 -87 -4 -132 -42
-224 l-16 -40 40 45 c101 112 156 309 132 473 -15 102 -42 185 -82 250 -17 27
-30 52 -30 57 0 4 35 -5 77 -21 53 -21 137 -40 268 -60 104 -16 223 -41 264
-54 41 -14 76 -23 78 -21 8 8 -67 44 -143 69 -43 14 -153 40 -244 57 -274 52
-364 91 -453 198 -76 91 -59 174 48 223 71 33 183 17 241 -33 38 -34 47 -24
10 11 -39 37 -151 69 -277 80 -210 18 -366 23 -346 10 10 -6 52 -13 93 -16 41
-3 74 -9 74 -14 0 -15 -151 -22 -223 -10 -118 20 -171 56 -147 101 13 25 40
28 240 33 141 4 174 8 224 27 111 42 196 159 196 269 0 21 3 41 6 44 4 4 23
-6 43 -22 20 -15 65 -47 101 -71 129 -85 184 -158 196 -262 7 -62 -9 -156 -38
-211 -24 -49 -17 -59 10 -15 35 58 55 144 50 222 -8 124 -64 203 -203 286 -38
23 -92 58 -118 77 -27 19 -50 33 -52 31 -1 -2 -8 -30 -16 -63 -12 -53 -18 -62
-49 -78 -80 -41 -213 0 -345 107 -134 108 -206 128 -340 96z"/>
<path d="M764 3238 c-28 -5 -93 -30 -145 -56 -104 -52 -127 -76 -57 -60 47 11
251 6 283 -7 18 -7 18 -6 5 7 -23 23 -77 38 -138 38 -36 0 -53 3 -46 10 17 17
198 60 252 60 28 0 52 5 52 10 0 12 -135 11 -206 -2z"/>
<path d="M998 3233 c6 -2 18 -2 25 0 6 3 1 5 -13 5 -14 0 -19 -2 -12 -5z"/>
<path d="M2213 2963 c-7 -2 -13 -14 -13 -24 0 -11 -5 -29 -10 -40 -8 -13 -7
-19 0 -19 17 0 65 27 80 45 12 15 12 19 -5 31 -19 14 -31 16 -52 7z"/>
<path d="M585 2940 c-16 -17 -16 -20 -3 -15 9 4 19 13 22 21 7 19 2 18 -19 -6z"/>
<path d="M472 2850 c-97 -82 -89 -88 54 -40 49 17 95 29 103 28 7 -2 -7 -18
-33 -36 -25 -18 -46 -37 -46 -43 0 -5 19 -9 41 -9 l41 0 -65 -70 c-65 -68
-140 -170 -132 -178 2 -2 64 17 137 43 169 61 251 86 257 79 3 -3 -10 -17 -29
-32 -74 -57 -122 -107 -164 -171 -75 -115 -72 -119 29 -40 33 26 98 70 145 98
47 28 92 55 100 60 26 17 -63 -10 -105 -31 -22 -12 -59 -34 -82 -50 -65 -44
-51 -18 30 57 64 61 107 92 200 149 16 10 27 19 25 22 -6 6 -268 -60 -362 -91
-43 -14 -81 -23 -85 -20 -3 4 47 58 112 122 64 64 117 118 117 121 0 3 -16 2
-35 -1 -19 -3 -35 -2 -35 2 0 5 25 25 56 45 31 21 54 40 51 43 -5 5 -194 -46
-271 -73 -37 -14 -61 -11 -41 4 15 11 80 82 74 82 -2 0 -41 -32 -87 -70z"/>
<path d="M850 2050 c-26 -50 -55 -162 -65 -247 l-7 -62 -22 26 -22 26 -22 -50
c-12 -28 -24 -69 -28 -92 -8 -48 -27 -53 -44 -11 -7 17 -18 29 -24 27 -18 -5
-46 -69 -46 -104 0 -47 -15 -41 -50 20 -16 28 -30 48 -30 44 0 -14 70 -134 85
-147 13 -11 15 -4 15 48 0 33 3 67 6 76 6 16 34 23 34 8 0 -4 13 -23 29 -42
l29 -35 6 40 c12 72 38 165 47 165 4 0 26 -37 48 -82 l39 -83 1 95 c1 109 15
245 36 344 8 38 13 72 11 74 -3 2 -14 -15 -26 -38z"/>
<path d="M560 1923 c-7 -21 -16 -42 -21 -47 -11 -12 -12 -36 -1 -36 5 0 13 17
18 37 12 50 28 51 42 4 13 -43 42 -102 42 -86 0 18 -55 165 -62 165 -3 0 -12
-17 -18 -37z"/>
<path d="M4366 1754 c-34 -33 -27 -104 9 -104 24 0 17 -26 -21 -75 -28 -37
-33 -49 -23 -61 16 -19 32 -18 63 7 80 63 117 207 63 241 -21 13 -75 9 -91 -8z"/>
<path d="M1476 1540 c-32 -48 -33 -59 -4 -34 l21 19 -6 -35 c-3 -19 -8 -44
-11 -55 -4 -11 0 -6 8 11 15 31 33 134 24 134 -3 0 -17 -18 -32 -40z"/>
</g>
</svg>
